<svg width="180" height="253" viewBox="0 0 180 253" fill="none" xmlns="http://www.w3.org/2000/svg">
<g clip-path="url(#clip0_2_873)">
<rect y="0.5" width="180" height="252" rx="14" fill="white"/>
<path d="M154.6 0.5H139.7H112.1H111.4H89.7H47.3H34.6H12.2H-9.09998V83.6H24.9H67.4H89.7H132.2H144.9H167.3H189.1V0.5H154.6Z" fill="#EF7A22"/>
<path d="M167.8 83.25C167.8 84.2717 166.972 85.1 165.95 85.1V85.1C164.928 85.1 164.1 84.2717 164.1 83.25V26.2C164.1 24.5431 162.757 23.2 161.1 23.2H18.9001C17.2432 23.2 15.9001 24.5431 15.9001 26.2V83.25C15.9001 84.2717 15.0718 85.1 14.0501 85.1V85.1C13.0283 85.1 12.2001 84.2717 12.2001 83.25V22.5C12.2001 20.8431 13.5432 19.5 15.2001 19.5H164.8C166.457 19.5 167.8 20.8431 167.8 22.5V83.25Z" fill="white"/>
<path d="M168.8 230.5C168.8 232.157 167.457 233.5 165.8 233.5H14.2001C12.5432 233.5 11.2001 232.157 11.2001 230.5V82.1001H17.0001V224.8C17.0001 226.457 18.3432 227.8 20.0001 227.8H160C161.657 227.8 163 226.457 163 224.8V82.2001H168.8V230.5Z" fill="#EF7A22"/>
<path d="M76.9 54C76.9 59.4 73.1 63 68.6 63C66.4 63 64.6 62.3 63.3 61.1V68.2H57.9V45.5H63.3V46.9C64.6 45.7 66.4 45 68.6 45C73.1 45 76.9 48.6 76.9 54ZM71.5 54C71.5 51.4 69.8 49.6 67.4 49.6C65.2 49.6 63.2 51.4 63.2 54C63.2 56.7 65.2 58.4 67.4 58.4C69.8 58.4 71.5 56.6 71.5 54Z" fill="white"/>
<path d="M79.7001 38.1001H85.1001V62.5001H79.7001V38.1001Z" fill="white"/>
<path d="M106.7 54C106.7 59.4 102.4 63 97.4 63C92.2 63 87.9 59.4 87.9 54C87.9 48.6 92.2 45 97.4 45C102.5 45 106.7 48.6 106.7 54ZM101.5 54C101.5 51.3 99.5 49.6 97.4 49.6C95.2 49.6 93.2 51.4 93.2 54C93.2 56.7 95.2 58.4 97.4 58.4C99.5 58.4 101.5 56.7 101.5 54Z" fill="white"/>
<path d="M117.6 63C113.4 63 110.8 60.7 110.8 56.2V49.7H107.7V45.5H110.8V40.5H116.2V45.5H121.2V49.8H116.2V55.7C116.2 57.5 117 58.2 118.5 58.2C119.2 58.2 120.3 57.9 121 57.5L122.3 61.8C120.9 62.5 119.5 63 117.6 63Z" fill="white"/>
</g>
<defs>
<clipPath id="clip0_2_873">
<rect y="0.5" width="180" height="252" rx="14" fill="white"/>
</clipPath>
</defs>
</svg>
