<svg width="180" height="253" viewBox="0 0 180 253" fill="none" xmlns="http://www.w3.org/2000/svg">
<g clip-path="url(#clip0_2_884)">
<rect y="0.5" width="180" height="252" rx="8" fill="white"/>
<path d="M154.6 0.5H139.7H112.1H111.4H89.7H47.3H34.6H12.2H-9.09998V83.6H24.9H67.4H89.7H132.2H144.9H167.3H189.1V0.5H154.6Z" fill="#742449"/>
<path d="M167.8 85.1H164.1V23.2H15.9001V85.1H12.2001V19.5H167.8V85.1Z" fill="#742449"/>
<path d="M168.8 233.5H11.2001V82.1001H17.0001V227.8H163V82.2001H168.8V233.5Z" fill="#742449"/>
<path d="M154.6 1.5H139.7H112.1H111.4H89.7H47.3H34.6H12.2H-9.09998V84.7H24.9H67.4H89.7H132.2H144.9H167.3H189.1V1.5H154.6Z" fill="#742449"/>
<path d="M167.8 84.25C167.8 85.2717 166.972 86.1 165.95 86.1V86.1C164.928 86.1 164.1 85.2717 164.1 84.25V27.2C164.1 25.5431 162.757 24.2 161.1 24.2H18.9001C17.2432 24.2 15.9001 25.5431 15.9001 27.2V84.25C15.9001 85.2717 15.0718 86.1 14.0501 86.1V86.1C13.0283 86.1 12.2001 85.2717 12.2001 84.25V23.5C12.2001 21.8431 13.5432 20.5 15.2001 20.5H164.8C166.457 20.5 167.8 21.8431 167.8 23.5V84.25Z" fill="white"/>
<path d="M168.8 231.6C168.8 233.257 167.457 234.6 165.8 234.6H14.2001C12.5432 234.6 11.2001 233.257 11.2001 231.6V83.2002H17.0001V225.8C17.0001 227.457 18.3432 228.8 20.0001 228.8H160C161.657 228.8 163 227.457 163 225.8V83.2002H168.8V231.6Z" fill="#742449"/>
<path d="M62 64.1C57.8 64.1 55.2 61.8 55.2 57.3V50.8H52.1V46.5H55.2V41.5H60.6V46.5H65.6V50.8H60.6V56.7C60.6 58.5 61.4 59.2 62.9 59.2C63.6 59.2 64.7 58.9 65.4 58.5L66.7 62.8C65.3 63.5 63.9 64.1 62 64.1Z" fill="white"/>
<path d="M71.3 69.3L74.1 62.9L67 46.5H72.8L76.8 56.5L81.1 46.5H86.9L77 69.4H71.3V69.3Z" fill="white"/>
<path d="M108.3 55C108.3 60.4 104.5 64 99.9999 64C97.7999 64 95.9999 63.3 94.6999 62.1V69.2H89.2999V46.5H94.6999V47.9C95.9999 46.7 97.7999 46 99.9999 46C104.5 46 108.3 49.7 108.3 55ZM103 55C103 52.4 101.3 50.6 98.8999 50.6C96.6999 50.6 94.6999 52.4 94.6999 55C94.6999 57.7 96.6999 59.4 98.8999 59.4C101.3 59.5 103 57.7 103 55Z" fill="white"/>
<path d="M115.4 56.4C115.8 58.4 117.2 59.7 119.1 59.7C120.4 59.7 121.8 59.4 122.7 57.7L127.5 58.7C126 62.3 122.9 64 119 64C114.1 64 110 60.4 110 55C110 49.6 114.1 46 119 46C123.8 46 127.7 49.5 127.8 55V56.4H115.4ZM115.5 53.1H122.5C122 51.3 120.6 50.4 119.1 50.4C117.6 50.4 116 51.4 115.5 53.1Z" fill="white"/>
</g>
<defs>
<clipPath id="clip0_2_884">
<rect y="0.5" width="180" height="252" rx="8" fill="white"/>
</clipPath>
</defs>
</svg>
