<svg width="180" height="253" viewBox="0 0 180 253" fill="none" xmlns="http://www.w3.org/2000/svg">
<g clip-path="url(#clip0_2_900)">
<rect y="0.5" width="180" height="252" rx="14" fill="white"/>
<path d="M154.6 0.5H139.7H112.1H111.4H89.6999H47.2999H34.5999H12.1999H-9.1001V83.6H24.8999H67.3999H89.6999H132.2H144.9H167.3H189.1V0.5H154.6Z" fill="#B44E79"/>
<path d="M167.8 85.1H164.1V23.2H15.9V85.1H12.2V19.5H167.8V85.1Z" fill="#B44E79"/>
<path d="M168.8 233.5H11.2V82.1001H17V227.8H163V82.2001H168.8V233.5Z" fill="#B44E79"/>
<path d="M154.6 1.5H139.7H112.1H111.4H89.6999H47.2999H34.5999H12.1999H-9.1001V84.7H24.8999H67.3999H89.6999H132.2H144.9H167.3H189.1V1.5H154.6Z" fill="#B44E79"/>
<path d="M167.8 84.25C167.8 85.2717 166.972 86.1 165.95 86.1V86.1C164.928 86.1 164.1 85.2717 164.1 84.25V27.2C164.1 25.5431 162.757 24.2 161.1 24.2H18.8999C17.2431 24.2 15.9 25.5431 15.9 27.2V84.25C15.9 85.2717 15.0717 86.1 14.05 86.1V86.1C13.0282 86.1 12.2 85.2717 12.2 84.25V23.5C12.2 21.8431 13.5431 20.5 15.2 20.5H164.8C166.457 20.5 167.8 21.8431 167.8 23.5V84.25Z" fill="white"/>
<path d="M168.8 231.6C168.8 233.257 167.457 234.6 165.8 234.6H14.1999C12.5431 234.6 11.2 233.257 11.2 231.6V83.2002H17V225.8C17 227.457 18.3431 228.8 20 228.8H160C161.657 228.8 163 227.457 163 225.8V83.2002H168.8V231.6Z" fill="#B44E79"/>
<path d="M40.3 59.9998C41.7 59.9998 42.5 59.3998 42.5 58.5998C42.5 57.9998 42.1 57.5998 40.8 57.2998L37.3 56.5998C34.1 55.9998 32.3 54.2998 32.3 51.5998C32.3 48.0998 35.3 45.7998 39.6 45.7998C43.8 45.7998 46.7001 47.6998 47.4001 50.6998L42.4001 51.6998C42.2001 50.5998 41.2 49.6998 39.5 49.6998C38 49.6998 37.6 50.3998 37.6 50.9998C37.6 51.4998 37.8001 51.9998 38.9001 52.1998L42.9001 52.9998C46.1001 53.6998 47.6 55.5998 47.6 58.0998C47.6 61.8998 44.3 63.7998 39.8 63.7998C35.8 63.7998 32.4 62.2998 31.8 58.7998L37.1 57.6998C37.5 59.4998 38.8 59.9998 40.3 59.9998Z" fill="white"/>
<path d="M54.7001 56.4C55.1001 58.4 56.5001 59.7 58.4001 59.7C59.7001 59.7 61.1 59.4 62 57.7L66.8001 58.7C65.3001 62.3 62.2 64 58.3 64C53.4 64 49.3 60.4 49.3 55C49.3 49.6 53.4 46 58.3 46C63.1 46 67 49.5 67.1 55V56.4H54.7001ZM54.8 53.1H61.8C61.3 51.3 59.9001 50.4 58.4001 50.4C56.9001 50.4 55.4 51.4 54.8 53.1Z" fill="white"/>
<path d="M78.1 64.1C73.9 64.1 71.3 61.8 71.3 57.3V50.8H68.2V46.5H71.3V41.5H76.7V46.5H81.7V50.8H76.7V56.7C76.7 58.5 77.5 59.2 79 59.2C79.7 59.2 80.8 58.9 81.5 58.5L82.8 62.8C81.4 63.5 80 64.1 78.1 64.1Z" fill="white"/>
<path d="M92.8001 64.1C88.6001 64.1 86.0001 61.8 86.0001 57.3V50.8H82.9001V46.5H86.0001V41.5H91.4001V46.5H96.4001V50.8H91.4001V56.7C91.4001 58.5 92.2001 59.2 93.7001 59.2C94.4001 59.2 95.5001 58.9 96.2001 58.5L97.5001 62.8C96.1001 63.5 94.7001 64.1 92.8001 64.1Z" fill="white"/>
<path d="M105.7 41.4999C105.7 43.1999 104.4 44.4999 102.5 44.4999C100.7 44.4999 99.4001 43.1999 99.4001 41.4999C99.4001 39.7999 100.7 38.3999 102.5 38.3999C104.3 38.3999 105.7 39.7999 105.7 41.4999ZM99.8001 46.4999H105.2V63.5999H99.8001V46.4999Z" fill="white"/>
<path d="M126.8 53.1V63.6H121.4V54.3C121.4 52.3 120.2 50.9 118.5 50.9C116.4 50.9 115 52.4 115 55.7V63.6H109.6V46.5H115V48.1C116.3 46.7 118.1 46 120.2 46C124.1 46 126.8 48.8 126.8 53.1Z" fill="white"/>
<path d="M138.5 70C134.6 70 131.6 68.6 129.9 65.9L134.4 63.5C135.7 65 136.6 65.6 138.4 65.6C140.9 65.6 142.6 64.1 142.6 61.5V61C141.4 62.1 139.7 62.6 137.5 62.6C133 62.6 129.3 59.1 129.3 54.2C129.3 49.5 133.1 46 137.5 46C139.7 46 141.4 46.6 142.6 47.6V46.5H147.9V61.9C148 67.1 144 70 138.5 70ZM142.7 54.2C142.7 51.9 140.9 50.3 138.7 50.3C136.3 50.3 134.6 51.9 134.6 54.2C134.6 56.5 136.3 58.1 138.7 58.1C140.9 58.1 142.7 56.5 142.7 54.2Z" fill="white"/>
</g>
<defs>
<clipPath id="clip0_2_900">
<rect y="0.5" width="180" height="252" rx="14" fill="white"/>
</clipPath>
</defs>
</svg>
