<svg width="180" height="253" viewBox="0 0 180 253" fill="none" xmlns="http://www.w3.org/2000/svg">
<g clip-path="url(#clip0_2_919)">
<rect y="0.5" width="180" height="252" rx="14" fill="white"/>
<path d="M154.6 0.5H139.7H112.1H111.4H89.6999H47.2999H34.5999H12.1999H-9.1001V83.6H24.8999H67.3999H89.6999H132.2H144.9H167.3H189.1V0.5H154.6Z" fill="#E92E27"/>
<path d="M167.8 85.1H164.1V23.2H15.9V85.1H12.2V19.5H167.8V85.1Z" fill="#B44E79"/>
<path d="M168.8 233.5H11.2V82.1001H17V227.8H163V82.2001H168.8V233.5Z" fill="#E92E27"/>
<path d="M154.6 1.5H139.7H112.1H111.4H89.6999H47.2999H34.5999H12.1999H-9.1001V84.7H24.8999H67.3999H89.6999H132.2H144.9H167.3H189.1V1.5H154.6Z" fill="#E92E27"/>
<path d="M167.8 84.25C167.8 85.2717 166.972 86.1 165.95 86.1V86.1C164.928 86.1 164.1 85.2717 164.1 84.25V27.2C164.1 25.5431 162.757 24.2 161.1 24.2H18.8999C17.2431 24.2 15.9 25.5431 15.9 27.2V84.25C15.9 85.2717 15.0717 86.1 14.05 86.1V86.1C13.0282 86.1 12.2 85.2717 12.2 84.25V23.5C12.2 21.8431 13.5431 20.5 15.2 20.5H164.8C166.457 20.5 167.8 21.8431 167.8 23.5V84.25Z" fill="white"/>
<path d="M168.8 231.6C168.8 233.257 167.457 234.6 165.8 234.6H14.1999C12.5431 234.6 11.2 233.257 11.2 231.6V83.2002H17V225.8C17 227.457 18.3431 228.8 20 228.8H160C161.657 228.8 163 227.457 163 225.8V83.2002H168.8V231.6Z" fill="#E92E27"/>
<path d="M62.5999 64.1C58.3999 64.1 55.7999 61.8 55.7999 57.3V50.8H52.7V46.5H55.7999V41.5H61.2V46.5H66.1999V50.8H61.2V56.7C61.2 58.5 62 59.2 63.5 59.2C64.2 59.2 65.3 58.9 66 58.5L67.3 62.8C66 63.5 64.5999 64.1 62.5999 64.1Z" fill="white"/>
<path d="M86.6999 55C86.6999 60.4 82.3999 64 77.3999 64C72.1999 64 67.8999 60.4 67.8999 55C67.8999 49.6 72.1999 46 77.3999 46C82.3999 46.1 86.6999 49.7 86.6999 55ZM81.4999 55C81.4999 52.3 79.4999 50.6 77.3999 50.6C75.1999 50.6 73.1999 52.4 73.1999 55C73.1999 57.7 75.1999 59.4 77.3999 59.4C79.4999 59.5 81.4999 57.7 81.4999 55Z" fill="white"/>
<path d="M106.8 53.1V63.6H101.4V54.3C101.4 52.3 100.2 50.9 98.4999 50.9C96.3999 50.9 94.9999 52.4 94.9999 55.7V63.6H89.5999V46.5H94.9999V48.1C96.2999 46.7 98.0999 46 100.2 46C104.2 46 106.8 48.8 106.8 53.1Z" fill="white"/>
<path d="M114.8 56.4C115.2 58.4 116.6 59.7 118.5 59.7C119.8 59.7 121.2 59.4 122.1 57.7L126.9 58.7C125.4 62.3 122.3 64 118.4 64C113.5 64 109.4 60.4 109.4 55C109.4 49.6 113.5 46 118.4 46C123.2 46 127.1 49.5 127.2 55V56.4H114.8ZM114.9 53.1H121.9C121.4 51.3 120 50.4 118.5 50.4C116.9 50.4 115.4 51.4 114.9 53.1Z" fill="white"/>
</g>
<defs>
<clipPath id="clip0_2_919">
<rect y="0.5" width="180" height="252" rx="14" fill="white"/>
</clipPath>
</defs>
</svg>
